<svg width="1000" height="1000" viewBox="0 0 1000 1000" fill="none" xmlns="http://www.w3.org/2000/svg">
<g clip-path="url(#clip0_2777_39)">
<rect width="1000" height="1000" rx="55" fill="#F5C518"/>
<path d="M365.753 809.602C329.801 809.602 300.351 802.717 277.402 788.948C254.454 775.179 237.625 757.203 226.916 735.02C216.972 712.837 212 689.506 212 665.028C212 632.9 219.267 606.892 233.801 587.004C248.335 566.351 267.076 549.904 290.024 537.665C313.737 524.661 338.598 513.952 364.606 505.538C390.614 497.123 415.092 489.092 438.04 481.442C461.753 473.028 480.876 463.466 495.41 452.757C509.944 441.283 517.211 426.749 517.211 409.155V307.036C517.211 294.797 514.916 281.41 510.327 266.877C506.502 252.343 498.853 239.721 487.378 229.012C475.904 218.303 458.693 212.948 435.745 212.948C423.506 212.948 411.649 214.861 400.175 218.685C389.466 221.745 379.904 226.335 371.49 232.454C398.263 242.398 417.769 256.55 430.008 274.908C442.247 292.502 448.367 312.008 448.367 333.426C448.367 364.024 437.657 388.12 416.239 405.713C394.821 423.307 369.578 432.104 340.51 432.104C309.912 432.104 286.199 422.542 269.371 403.418C252.542 384.295 244.127 360.582 244.127 332.279C244.127 308.566 249.865 288.677 261.339 272.614C273.578 255.785 291.554 240.486 315.267 226.717C338.215 213.713 365.753 204.534 397.88 199.179C430.008 193.06 463.665 190 498.853 190C536.335 190 571.139 193.825 603.267 201.474C635.394 208.359 662.932 223.657 685.88 247.371C701.944 264.199 712.271 285.235 716.861 310.478C721.45 335.721 723.745 368.231 723.745 408.008V715.514C723.745 734.637 724.892 747.641 727.187 754.526C730.247 761.41 735.219 764.853 742.104 764.853C748.223 764.853 753.96 762.94 759.315 759.116C765.434 755.291 771.171 751.466 776.526 747.641L788 767.147C771.171 781.681 750.135 792.39 724.892 799.275C700.414 806.159 674.406 809.602 646.869 809.602C613.976 809.602 588.351 805.777 569.992 798.127C552.398 789.713 539.777 779.004 532.128 766C525.243 752.231 521.418 737.697 520.653 722.398C504.59 747.641 484.319 768.677 459.841 785.506C436.127 801.57 404.765 809.602 365.753 809.602ZM474.757 717.809C483.171 717.809 490.438 716.661 496.558 714.367C503.442 711.307 510.327 705.952 517.211 698.303V456.199C511.857 466.143 504.59 476.088 495.41 486.032C486.996 495.211 478.199 504.773 469.02 514.717C459.841 524.661 451.044 535.37 442.629 546.845C434.98 558.319 428.478 571.705 423.124 587.004C418.534 601.538 416.239 618.749 416.239 638.637C416.239 667.705 421.594 688.359 432.303 700.598C443.777 712.072 457.928 717.809 474.757 717.809Z" fill="black"/>
</g>
<defs>
<clipPath id="clip0_2777_39">
<rect width="1000" height="1000" fill="white"/>
</clipPath>
</defs>
</svg>
