<svg width="840" height="320" viewBox="80 340 840 320" fill="none" xmlns="http://www.w3.org/2000/svg">
<path d="M190.082 554.116C183.512 554.116 177.824 552.915 173.017 550.511C168.21 547.947 164.524 544.422 161.961 539.936C159.557 535.449 158.355 530.242 158.355 524.313C158.355 517.263 159.958 511.494 163.162 507.008C166.527 502.521 170.774 498.916 175.901 496.192C181.028 493.468 186.396 491.225 192.004 489.462C197.773 487.54 203.221 485.777 208.348 484.175C213.476 482.412 217.642 480.409 220.846 478.166C224.211 475.923 225.894 472.958 225.894 469.273V454.371C225.894 447.642 224.852 442.514 222.769 438.989C220.846 435.464 218.202 433.14 214.838 432.019C211.473 430.737 207.707 430.096 203.541 430.096C199.535 430.096 195.209 430.657 190.562 431.779C186.076 432.9 182.471 435.224 179.747 438.749C182.791 439.39 185.435 440.992 187.678 443.556C189.921 446.119 191.043 449.404 191.043 453.41C191.043 457.416 189.761 460.62 187.197 463.024C184.634 465.267 181.349 466.389 177.343 466.389C172.696 466.389 169.251 464.947 167.008 462.063C164.925 459.018 163.884 455.653 163.884 451.968C163.884 447.802 164.925 444.437 167.008 441.873C169.091 439.309 171.735 436.906 174.94 434.663C178.625 432.099 183.352 429.936 189.12 428.173C195.049 426.25 201.698 425.289 209.069 425.289C215.639 425.289 221.247 426.09 225.894 427.693C230.54 429.135 234.386 431.298 237.43 434.182C241.596 438.028 244.32 442.754 245.602 448.363C246.884 453.811 247.525 460.38 247.525 468.071V534.888C247.525 538.894 248.086 541.778 249.208 543.541C250.489 545.304 252.412 546.185 254.976 546.185C256.738 546.185 258.421 545.784 260.023 544.983C261.626 544.182 263.548 542.9 265.792 541.137L268.435 545.223C265.071 547.787 261.866 549.95 258.821 551.713C255.777 553.315 251.691 554.116 246.564 554.116C241.917 554.116 238.071 553.315 235.027 551.713C231.982 550.111 229.659 547.787 228.057 544.743C226.615 541.538 225.894 537.532 225.894 532.725C221.567 539.936 216.36 545.304 210.271 548.829C204.342 552.354 197.613 554.116 190.082 554.116ZM198.734 544.502C204.022 544.502 208.909 542.98 213.395 539.936C218.042 536.891 222.208 532.325 225.894 526.236V479.127C223.971 481.851 221.167 484.175 217.481 486.097C213.796 487.86 209.79 489.703 205.464 491.626C201.138 493.388 196.972 495.551 192.966 498.115C189.12 500.518 185.916 503.723 183.352 507.729C180.788 511.735 179.506 516.942 179.506 523.352C179.506 529.761 181.189 534.888 184.554 538.734C188.079 542.58 192.806 544.502 198.734 544.502Z" fill="black"/>
<path d="M319.91 428.654V433.701C315.904 433.701 312.379 434.022 309.334 434.663C306.29 435.143 304.287 436.746 303.326 439.47C302.364 442.194 303.085 447.001 305.489 453.891L330.485 525.515L328.803 525.274L364.134 427.693L368.941 429.615L324.957 553.636C324.316 553.636 323.675 553.636 323.034 553.636C322.393 553.636 321.672 553.636 320.871 553.636L281.454 447.161C278.89 440.752 276.326 436.906 273.763 435.624C271.359 434.342 269.276 433.701 267.513 433.701V428.654C270.718 429.135 274.003 429.535 277.368 429.856C280.893 430.016 284.658 430.096 288.664 430.096C293.631 430.096 298.839 429.936 304.287 429.615C309.895 429.295 315.103 428.974 319.91 428.654ZM451.861 428.654V433.461C448.817 433.781 445.933 435.143 443.209 437.547C440.645 439.79 438.322 444.036 436.239 450.285L401.388 553.636C400.747 553.636 400.106 553.636 399.465 553.636C398.824 553.636 398.103 553.636 397.302 553.636L358.606 455.333L364.134 427.693C365.095 427.693 365.977 427.693 366.778 427.693C367.739 427.693 368.701 427.693 369.662 427.693L407.156 526.957L405.234 528.399L429.028 456.054C430.791 450.606 431.432 446.36 430.951 443.315C430.631 440.111 429.028 437.787 426.144 436.345C423.42 434.743 419.174 433.781 413.406 433.461V428.654C416.29 428.814 418.773 428.974 420.856 429.135C422.939 429.135 424.942 429.215 426.865 429.375C428.948 429.375 431.191 429.375 433.595 429.375C437.28 429.375 440.565 429.295 443.449 429.135C446.494 428.974 449.298 428.814 451.861 428.654Z" fill="black"/>
<path d="M491.072 364.24V454.131C495.238 443.235 501.007 435.704 508.377 431.538C515.908 427.372 523.76 425.289 531.932 425.289C538.02 425.289 543.068 426.09 547.074 427.693C551.24 429.295 554.685 431.538 557.409 434.422C560.453 437.627 562.616 441.633 563.898 446.44C565.18 451.247 565.821 457.736 565.821 465.908V530.081C565.821 536.811 567.183 541.378 569.907 543.781C572.791 546.185 577.518 547.387 584.087 547.387V552.434C581.363 552.274 577.197 552.113 571.589 551.953C565.981 551.633 560.533 551.472 555.245 551.472C549.958 551.472 544.75 551.633 539.623 551.953C534.656 552.113 530.89 552.274 528.326 552.434V547.387C534.095 547.387 538.181 546.185 540.584 543.781C542.988 541.378 544.189 536.811 544.189 530.081V460.62C544.189 455.653 543.789 451.087 542.988 446.921C542.186 442.754 540.344 439.39 537.46 436.826C534.736 434.262 530.489 432.98 524.721 432.98C518.152 432.98 512.303 434.823 507.176 438.508C502.208 442.194 498.283 447.321 495.398 453.891C492.514 460.46 491.072 467.991 491.072 476.483V530.081C491.072 536.811 492.274 541.378 494.677 543.781C497.081 546.185 501.167 547.387 506.935 547.387V552.434C504.372 552.274 500.526 552.113 495.398 551.953C490.431 551.633 485.304 551.472 480.016 551.472C474.728 551.472 469.281 551.633 463.672 551.953C458.064 552.113 453.898 552.274 451.174 552.434V547.387C457.744 547.387 462.39 546.185 465.114 543.781C467.999 541.378 469.441 536.811 469.441 530.081V393.082C469.441 385.872 468.159 380.584 465.595 377.219C463.031 373.694 458.224 371.932 451.174 371.932V366.884C456.302 367.365 461.269 367.605 466.076 367.605C470.723 367.605 475.129 367.365 479.295 366.884C483.621 366.243 487.547 365.362 491.072 364.24Z" fill="black"/>
<path d="M622.036 368.567C626.202 368.567 629.808 370.089 632.852 373.133C635.896 376.178 637.419 379.783 637.419 383.949C637.419 388.115 635.896 391.72 632.852 394.765C629.808 397.809 626.202 399.331 622.036 399.331C617.87 399.331 614.265 397.809 611.221 394.765C608.176 391.72 606.654 388.115 606.654 383.949C606.654 379.783 608.176 376.178 611.221 373.133C614.265 370.089 617.87 368.567 622.036 368.567ZM634.534 426.01V530.081C634.534 536.811 635.896 541.378 638.62 543.781C641.505 546.185 646.231 547.387 652.801 547.387V552.434C650.077 552.274 645.911 552.113 640.303 551.953C634.855 551.633 629.327 551.472 623.719 551.472C618.271 551.472 612.743 551.633 607.135 551.953C601.526 552.113 597.36 552.274 594.636 552.434V547.387C601.206 547.387 605.853 546.185 608.577 543.781C611.461 541.378 612.903 536.811 612.903 530.081V454.852C612.903 447.642 611.621 442.354 609.057 438.989C606.494 435.464 601.687 433.701 594.636 433.701V428.654C599.764 429.135 604.731 429.375 609.538 429.375C614.185 429.375 618.591 429.135 622.757 428.654C627.084 428.013 631.009 427.132 634.534 426.01Z" fill="black"/>
<path d="M703.267 364V530.081C703.267 536.811 704.629 541.378 707.353 543.781C710.237 546.185 714.964 547.387 721.533 547.387V552.434C718.809 552.274 714.643 552.113 709.035 551.953C703.587 551.633 698.059 551.472 692.451 551.472C687.003 551.472 681.475 551.633 675.867 551.953C670.259 552.113 666.093 552.274 663.369 552.434V547.387C669.938 547.387 674.585 546.185 677.309 543.781C680.193 541.378 681.635 536.811 681.635 530.081V392.842C681.635 385.631 680.354 380.344 677.79 376.979C675.226 373.454 670.419 371.691 663.369 371.691V366.644C668.496 367.125 673.464 367.365 678.271 367.365C682.917 367.365 687.324 367.125 691.49 366.644C695.816 366.003 699.742 365.122 703.267 364Z" fill="black"/>
<path d="M789.881 425.289C803.981 425.289 814.957 429.615 822.809 438.268C830.82 446.76 834.826 460.06 834.826 478.166H749.983L749.743 473.599H811.753C812.073 465.748 811.432 458.537 809.83 451.968C808.228 445.238 805.664 439.87 802.139 435.864C798.774 431.859 794.367 429.856 788.919 429.856C781.549 429.856 774.979 433.541 769.211 440.912C763.603 448.283 760.238 459.98 759.116 476.003L759.837 476.964C759.517 479.368 759.276 482.012 759.116 484.896C758.956 487.78 758.876 490.664 758.876 493.548C758.876 504.444 760.638 513.818 764.164 521.669C767.689 529.521 772.255 535.529 777.863 539.695C783.632 543.701 789.56 545.704 795.649 545.704C800.456 545.704 805.023 544.983 809.349 543.541C813.675 541.939 817.681 539.375 821.367 535.85C825.052 532.325 828.257 527.598 830.981 521.669L835.788 523.592C834.025 528.88 831.141 534.007 827.135 538.974C823.129 543.942 818.082 548.027 811.993 551.232C805.904 554.277 798.854 555.799 790.842 555.799C779.306 555.799 769.371 553.155 761.039 547.867C752.867 542.58 746.538 535.289 742.051 525.995C737.725 516.542 735.562 505.726 735.562 493.548C735.562 479.448 737.805 467.35 742.292 457.256C746.778 447.001 753.107 439.149 761.279 433.701C769.451 428.093 778.985 425.289 789.881 425.289Z" fill="black"/>
<circle cx="622.17" cy="384.067" r="16.524" fill="#F5C518"/>
<line x1="892.563" y1="604.888" x2="102.414" y2="604.888" stroke="#F5C518" stroke-width="15.0218"/>
<line x1="94.9036" y1="636.434" x2="94.9036" y2="573.342" stroke="#F5C518" stroke-width="15.0218"/>
<line x1="900.074" y1="636.434" x2="900.074" y2="573.342" stroke="#F5C518" stroke-width="15.0218"/>
</svg>
